PathFileType	4	(X/Y/Z)	/Users/itak/Documents/Research/Walk-IL/dataset/trc/00151_00007.trc
DataRate	CameraRate	NumFrames	NumMarkers	Units	OrigDataRate	OrigDataStartFrame	OrigNumFrames
100.000000	100.000000	4	53	mm	100.000000	0	544
Frame#	Time	RPSI			LPSI			L3			STRN			T10			C7			CLAV			RBAK			LBAK			LSHO			LUPA			LAEL			LAOL			LWTS			LWPS			LFRA			LIFD			LHPS			LHTS			RSHO			RUPA			RAEL			RAOL			RWTS			RWPS			RFRA			RIFD			RHTS			RHPS			RBHD			LFHD			RFHD			LBHD			LHIP			RHIP			RASI			LASI			LKNE			LTHI			LANK			LTIP			LTOE			LMT1			LMT5			LHEE			RKNE			RTHI			RANK			RTIP			RTOE			RMT1			RMT5			RHEE			
		X1	Y1	Z1	X2	Y2	Z2	X3	Y3	Z3	X4	Y4	Z4	X5	Y5	Z5	X6	Y6	Z6	X7	Y7	Z7	X8	Y8	Z8	X9	Y9	Z9	X10	Y10	Z10	X11	Y11	Z11	X12	Y12	Z12	X13	Y13	Z13	X14	Y14	Z14	X15	Y15	Z15	X16	Y16	Z16	X17	Y17	Z17	X18	Y18	Z18	X19	Y19	Z19	X20	Y20	Z20	X21	Y21	Z21	X22	Y22	Z22	X23	Y23	Z23	X24	Y24	Z24	X25	Y25	Z25	X26	Y26	Z26	X27	Y27	Z27	X28	Y28	Z28	X29	Y29	Z29	X30	Y30	Z30	X31	Y31	Z31	X32	Y32	Z32	X33	Y33	Z33	X34	Y34	Z34	X35	Y35	Z35	X36	Y36	Z36	X37	Y37	Z37	X38	Y38	Z38	X39	Y39	Z39	X40	Y40	Z40	X41	Y41	Z41	X42	Y42	Z42	X43	Y43	Z43	X44	Y44	Z44	X45	Y45	Z45	X46	Y46	Z46	X47	Y47	Z47	X48	Y48	Z48	X49	Y49	Z49	X50	Y50	Z50	X51	Y51	Z51	X52	Y52	Z52	X53	Y53	Z53	

1	0	-1352.53857421875	1124.539794921875	-505.4503479003906	-1356.924682617188	1125.0986328125	-639.9813842773438	-1362.451049804688	1154.458251953125	-574.6306762695312	-1161.177612304688	1360.544067382812	-581.8738403320312	-1410.922119140625	1299.480102539062	-576.5265502929688	-1394.621215820312	1593.81787109375	-591.7050170898438	-1206.9658203125	1492.838745117188	-585.8675537109375	-1438.088989257812	1406.89990234375	-503.3367919921875	-1402.05859375	1572.96533203125	-693.0655517578125	-1316.20947265625	1561.871948242188	-762.1475219726562	-1337.040771484375	1432.063354492188	-834.038818359375	-1325.459594726562	1214.309814453125	-863.4734497070312	-1391.360229492188	1200.755126953125	-806.7103881835938	-1223.707397460938	956.7337036132812	-823.8980712890625	-1302.955932617188	930.787353515625	-853.4719848632812	-1307.663208007812	1098.03759765625	-870.4653930664062	-1212.063354492188	763.6466064453125	-802.2041015625	-1273.801391601562	855.9470825195312	-853.27392578125	-1208.3232421875	867.9786376953125	-834.5224609375	-1338.628784179688	1578.640502929688	-411.4571228027344	-1353.172729492188	1503.120971679688	-348.7498474121094	-1345.134521484375	1207.5234375	-331.3934020996094	-1347.969116210938	1207.412109375	-428.1654357910156	-1188.923217773438	972.968505859375	-343.7306213378906	-1262.59130859375	952.620849609375	-312.9139099121094	-1318.189086914062	1136.006591796875	-315.6890258789062	-1154.887451171875	780.4067993164062	-362.7240295410156	-1154.391357421875	866.4219360351562	-338.4506530761719	-1220.52099609375	855.1361083984375	-308.9644165039062	-1368.255615234375	1760.422119140625	-509.5567932128906	-1212.695434570312	1849.934448242188	-637.1552124023438	-1212.473388671875	1845.133422851562	-507.5882873535156	-1376.460083007812	1768.145874023438	-644.6065063476562	-1266.705688476562	1036.908569335938	-749.145751953125	-1222.206909179688	1030.612182617188	-391.6239013671875	-1142.544921875	1103.740600585938	-446.306640625	-1159.679443359375	1102.674194335938	-712.625	-1253.703002929688	536.7557983398438	-724.3433227539062	-1270.83154296875	683.0138549804688	-749.9571533203125	-1372.381225585938	36.3177490234375	-714.98388671875	-1358.7216796875	292.4840698242188	-747.046630859375	-1139.31201171875	35.94820785522461	-659.2429809570312	-1221.9140625	40.74428558349609	-626.2015380859375	-1247.331176757812	33.33941650390625	-742.1098022460938	-1440.39599609375	36.81697845458984	-652.2714233398438	-1257.76416015625	537.7025756835938	-426.8228759765625	-1215.901000976562	814.4871826171875	-399.1385498046875	-1371.281372070312	29.86977767944336	-443.5387878417969	-1287.869995117188	405.9564514160156	-416.3858947753906	-1142.9208984375	41.0071907043457	-511.5895080566406	-1206.709838867188	30.57167434692383	-548.86572265625	-1236.6396484375	37.46096038818359	-430.7359313964844	-1431.743286132812	31.05749893188477	-487.4555053710938	
2	0.01	-1352.283203125	1124.524047851562	-505.5437316894531	-1356.6767578125	1125.060546875	-640.0364990234375	-1362.24072265625	1154.41845703125	-574.7171630859375	-1160.861206054688	1360.468139648438	-582.1134033203125	-1410.601928710938	1299.505981445312	-576.58349609375	-1394.226684570312	1593.854614257812	-591.6610717773438	-1206.658203125	1492.784057617188	-586.107666015625	-1437.6484375	1406.953125	-503.2393493652344	-1401.879272460938	1572.909423828125	-693.0297241210938	-1316.155883789062	1561.80517578125	-762.279541015625	-1337.157958984375	1432.027954101562	-834.1503295898438	-1325.348754882812	1214.257080078125	-863.7066040039062	-1391.148559570312	1200.568237304688	-806.8413696289062	-1222.503540039062	957.2182006835938	-824.2056274414062	-1301.698364257812	930.8281860351562	-853.6345825195312	-1307.1767578125	1098.046752929688	-870.692138671875	-1209.841918945312	764.1792602539062	-802.5641479492188	-1272.096435546875	856.1777954101562	-853.4865112304688	-1206.641967773438	868.5947265625	-834.9049072265625	-1337.944580078125	1578.665649414062	-411.5268859863281	-1352.58056640625	1503.136962890625	-348.8289184570312	-1345.284912109375	1207.567260742188	-331.7378234863281	-1347.93310546875	1207.534423828125	-428.4942626953125	-1190.18505859375	972.27197265625	-343.9652709960938	-1264.025390625	952.2402954101562	-313.2985534667969	-1318.67138671875	1135.955932617188	-316.0110473632812	-1157.128784179688	779.5740356445312	-363.0302124023438	-1156.253295898438	865.5609130859375	-338.7119445800781	-1222.560668945312	854.5233764648438	-309.2408752441406	-1368.217529296875	1760.079711914062	-509.7092590332031	-1212.699340820312	1850.158447265625	-636.9617309570312	-1212.668090820312	1845.127807617188	-507.3656921386719	-1376.262329101562	1768.037719726562	-644.6549072265625	-1266.549438476562	1036.879516601562	-749.2627563476562	-1221.954467773438	1030.614990234375	-391.7940673828125	-1142.314331054688	1103.6806640625	-446.3959655761719	-1159.580444335938	1102.6201171875	-712.7396850585938	-1253.51708984375	536.7128295898438	-724.3690185546875	-1270.652587890625	682.97216796875	-749.9725952148438	-1372.367797851562	36.32546615600586	-714.9605102539062	-1358.64794921875	292.4613037109375	-747.0413818359375	-1139.2998046875	35.93660354614258	-659.2394409179688	-1221.89111328125	40.72661972045898	-626.1795654296875	-1247.332153320312	33.35025405883789	-742.1008911132812	-1440.38525390625	36.82503128051758	-652.2371215820312	-1257.700073242188	537.689208984375	-426.8732604980469	-1216.092895507812	814.2872924804688	-399.1769104003906	-1371.279296875	29.87535285949707	-443.5426330566406	-1287.857299804688	405.9548950195312	-416.404296875	-1142.90380859375	41.00025177001953	-511.56787109375	-1206.70068359375	30.58702278137207	-548.864501953125	-1236.64111328125	37.44966506958008	-430.7237854003906	-1431.740356445312	31.06277465820312	-487.4634399414062	
3	0.02	-1351.984741210938	1124.513793945312	-505.6610412597656	-1356.395385742188	1125.026733398438	-640.1149291992188	-1361.958129882812	1154.375610351562	-574.81103515625	-1160.482177734375	1360.375732421875	-582.3883056640625	-1410.231811523438	1299.540893554688	-576.6630249023438	-1393.714599609375	1593.890747070312	-591.604248046875	-1206.2607421875	1492.718017578125	-586.3966064453125	-1437.1318359375	1407.015869140625	-503.1459045410156	-1401.6396484375	1572.851928710938	-692.996826171875	-1316.064331054688	1561.730712890625	-762.4380493164062	-1337.267944335938	1431.983520507812	-834.285888671875	-1325.168334960938	1214.191528320312	-863.9772338867188	-1390.8447265625	1200.336791992188	-806.9869384765625	-1220.98779296875	957.81005859375	-824.5733642578125	-1300.13623046875	930.8834228515625	-853.811767578125	-1306.541015625	1098.058227539062	-870.9556274414062	-1207.080078125	764.8257446289062	-803.0159912109375	-1269.972045898438	856.4654541015625	-853.7461547851562	-1204.540893554688	869.3533325195312	-835.3697509765625	-1337.111938476562	1578.6884765625	-411.6027221679688	-1351.852294921875	1503.16259765625	-348.9248962402344	-1345.484375	1207.6259765625	-332.1292419433594	-1347.930541992188	1207.68212890625	-428.8618774414062	-1191.74951171875	971.4208984375	-344.2450561523438	-1265.78564453125	951.7960815429688	-313.7266235351562	-1319.258178710938	1135.901489257812	-316.3754577636719	-1159.91943359375	778.5466918945312	-363.4000854492188	-1158.556762695312	864.502685546875	-339.0179443359375	-1225.058227539062	853.79931640625	-309.5562133789062	-1368.149780273438	1759.658447265625	-509.8906860351562	-1212.693115234375	1850.42626953125	-636.7364501953125	-1212.887084960938	1845.12939453125	-507.1174011230469	-1376.024780273438	1767.902099609375	-644.743408203125	-1266.368408203125	1036.850463867188	-749.4024658203125	-1221.671997070312	1030.61181640625	-391.9829711914062	-1142.041625976562	1103.611083984375	-446.4984130859375	-1159.447143554688	1102.561889648438	-712.8709106445312	-1253.29296875	536.6602783203125	-724.3967895507812	-1270.442993164062	682.9265747070312	-749.998291015625	-1372.353515625	36.33632278442383	-714.9363403320312	-1358.55908203125	292.4338684082031	-747.047607421875	-1139.283081054688	35.92106246948242	-659.2361450195312	-1221.863647460938	40.7076301574707	-626.1568603515625	-1247.33154296875	33.36159515380859	-742.0919799804688	-1440.37109375	36.83765029907227	-652.2014770507812	-1257.595825195312	537.6641845703125	-426.9477844238281	-1216.3037109375	814.0869750976562	-399.252685546875	-1371.277954101562	29.88468170166016	-443.5509643554688	-1287.810913085938	405.9487609863281	-416.436279296875	-1142.881713867188	40.98868179321289	-511.5408630371094	-1206.6875	30.60298347473145	-548.8638305664062	-1236.636108398438	37.44024658203125	-430.70947265625	-1431.735473632812	31.07169723510742	-487.4765930175781	
4	0.03	-1351.663818359375	1124.511962890625	-505.7958068847656	-1356.098999023438	1125.004760742188	-640.2146606445312	-1361.617065429688	1154.336303710938	-574.9057006835938	-1160.066040039062	1360.274169921875	-582.6767578125	-1409.838989257812	1299.585327148438	-576.7634887695312	-1393.103759765625	1593.922607421875	-591.5421752929688	-1205.783081054688	1492.645263671875	-586.7171630859375	-1436.577514648438	1407.08935546875	-503.0732727050781	-1401.341552734375	1572.802124023438	-692.9752807617188	-1315.924682617188	1561.656982421875	-762.6133422851562	-1337.34521484375	1431.933349609375	-834.4390258789062	-1324.90380859375	1214.11767578125	-864.2626342773438	-1390.440307617188	1200.0732421875	-807.1309814453125	-1219.220825195312	958.4764404296875	-824.97607421875	-1298.338745117188	930.9539184570312	-853.9830932617188	-1305.767944335938	1098.072509765625	-871.2332763671875	-1203.917236328125	765.5480346679688	-803.5414428710938	-1267.527954101562	856.7977905273438	-854.03564453125	-1202.116455078125	870.2149658203125	-835.8904418945312	-1336.179931640625	1578.704711914062	-411.6796264648438	-1351.029174804688	1503.19970703125	-349.0316772460938	-1345.725463867188	1207.700317382812	-332.5306701660156	-1347.978759765625	1207.845092773438	-429.232421875	-1193.540161132812	970.4651489257812	-344.5511474609375	-1267.778442382812	951.3237915039062	-314.1530151367188	-1319.918701171875	1135.850830078125	-316.7497863769531	-1163.130004882812	777.3804931640625	-363.804931640625	-1161.187622070312	863.3054809570312	-339.3488159179688	-1227.874755859375	853.0136108398438	-309.8821105957031	-1368.045166015625	1759.182983398438	-510.0873718261719	-1212.672485351562	1850.722290039062	-636.4977416992188	-1213.110229492188	1845.142578125	-506.8681030273438	-1375.7529296875	1767.74169921875	-644.8771362304688	-1266.176635742188	1036.825805664062	-749.55712890625	-1221.38427734375	1030.599487304688	-392.1742248535156	-1141.743896484375	1103.536376953125	-446.6090393066406	-1159.282958984375	1102.505859375	-713.0088500976562	-1253.048583984375	536.6027221679688	-724.424560546875	-1270.22021484375	682.8822631835938	-750.037109375	-1372.339599609375	36.34997177124023	-714.915771484375	-1358.462768554688	292.4039611816406	-747.0706787109375	-1139.263061523438	35.90271759033203	-659.2338256835938	-1221.834594726562	40.68961334228516	-626.1366577148438	-1247.329345703125	33.37157440185547	-742.0841064453125	-1440.354248046875	36.85508728027344	-652.17041015625	-1257.446899414062	537.6244506835938	-427.0470886230469	-1216.480712890625	813.927490234375	-399.3800048828125	-1371.276733398438	29.89823341369629	-443.5643310546875	-1287.719848632812	405.9368591308594	-416.4848327636719	-1142.855224609375	40.97225189208984	-511.5095825195312	-1206.669921875	30.61798858642578	-548.8637084960938	-1236.622802734375	37.43429565429688	-430.694091796875	-1431.728637695312	31.08501052856445	-487.4956665039062	
